<?xml version="1.0" encoding="UTF-8" standalone="no"?>
<!-- Created with Inkscape (http://www.inkscape.org/) -->

<svg
   width="16.933332mm"
   height="16.933332mm"
   viewBox="0 0 16.933332 16.933332"
   version="1.1"
   id="svg1"
   xml:space="preserve"
   inkscape:version="1.4 (86a8ad7, 2024-10-11)"
   sodipodi:docname="actsegm.svg"
   inkscape:export-filename="logo.png"
   inkscape:export-xdpi="96"
   inkscape:export-ydpi="96"
   xmlns:inkscape="http://www.inkscape.org/namespaces/inkscape"
   xmlns:sodipodi="http://sodipodi.sourceforge.net/DTD/sodipodi-0.dtd"
   xmlns="http://www.w3.org/2000/svg"
   xmlns:svg="http://www.w3.org/2000/svg"><sodipodi:namedview
     id="namedview1"
     pagecolor="#ffffff"
     bordercolor="#000000"
     borderopacity="0.25"
     inkscape:showpageshadow="2"
     inkscape:pageopacity="0.0"
     inkscape:pagecheckerboard="0"
     inkscape:deskcolor="#d1d1d1"
     inkscape:document-units="mm"
     inkscape:zoom="2.9041807"
     inkscape:cx="164.07381"
     inkscape:cy="55.265156"
     inkscape:window-width="1920"
     inkscape:window-height="1017"
     inkscape:window-x="-8"
     inkscape:window-y="72"
     inkscape:window-maximized="1"
     inkscape:current-layer="g1"
     showguides="true"
     inkscape:export-bgcolor="#ffffffff"><inkscape:page
       x="0"
       y="0"
       width="16.933332"
       height="16.933332"
       id="page1"
       margin="0"
       bleed="0"
       inkscape:export-filename="logo.png"
       inkscape:export-xdpi="96"
       inkscape:export-ydpi="96" /><sodipodi:guide
       position="1.9249704,281.53633"
       orientation="0,-1"
       id="guide4"
       inkscape:locked="false" /><sodipodi:guide
       position="10.306566,285.77268"
       orientation="1,0"
       id="guide5"
       inkscape:locked="false" /><sodipodi:guide
       position="4.4986674,284.97552"
       orientation="0,-1"
       id="guide1"
       inkscape:locked="false" /><sodipodi:guide
       position="2.9954464,283.5634"
       orientation="1,0"
       id="guide2"
       inkscape:locked="false" /><inkscape:page
       x="29.246889"
       y="-9.147706"
       width="361.42084"
       height="203.2"
       id="page2"
       margin="0 0 0 0"
       bleed="0"
       page-size="Desktop 720p"
       inkscape:export-filename="logo.png"
       inkscape:export-xdpi="96"
       inkscape:export-ydpi="96" /><sodipodi:guide
       position="39.448159,4.9075655"
       orientation="0,-1"
       id="guide7"
       inkscape:locked="false" /><sodipodi:guide
       position="52.020551,21.852964"
       orientation="1,0"
       id="guide8"
       inkscape:locked="false" /></sodipodi:namedview><defs
     id="defs1" /><g
     inkscape:label="Layer 1"
     inkscape:groupmode="layer"
     id="layer1"
     transform="translate(-33.059077,-61.700285)"><text
       xml:space="preserve"
       style="font-style:normal;font-variant:normal;font-weight:normal;font-stretch:normal;font-size:8.79893px;font-family:'Segoe Print';-inkscape-font-specification:'Segoe Print';text-align:start;writing-mode:lr-tb;direction:ltr;text-anchor:start;fill:#0000ff;stroke-width:0;stroke-dasharray:none"
       x="85.680809"
       y="72.241982"
       id="text5-4"
       inkscape:export-filename="test.png"
       inkscape:export-xdpi="130.75"
       inkscape:export-ydpi="130.75"><tspan
         sodipodi:role="line"
         x="85.680809"
         y="72.241982"
         id="tspan6-6"
         style="stroke-width:0">egment</tspan><tspan
         sodipodi:role="line"
         x="85.680809"
         y="83.240646"
         id="tspan7"
         style="stroke-width:0">ation</tspan></text></g><g
     id="g1"
     inkscape:groupmode="layer"
     inkscape:label="1"
     transform="matrix(0.26458333,0,0,0.26458333,186.94093,-61.700285)"><text
   xml:space="preserve"
   style="font-size:33.2558px;font-family:'Cyrillica Bulgarian';-inkscape-font-specification:'Cyrillica Bulgarian, Normal';text-align:start;writing-mode:lr-tb;direction:ltr;text-anchor:start;fill:#808000"
   x="-713.47656"
   y="282.78198"
   id="text2"><tspan
     sodipodi:role="line"
     id="tspan2"
     x="-713.47656"
     y="282.78198" /></text><text
   xml:space="preserve"
   style="font-style:normal;font-variant:normal;font-weight:normal;font-stretch:normal;font-size:44.1827px;font-family:'AndrijScript Cyrillic';-inkscape-font-specification:'AndrijScript Cyrillic';text-align:start;writing-mode:lr-tb;direction:ltr;text-anchor:start;fill:#ff0000;stroke-width:1.32857"
   x="-691.5686"
   y="263.96317"
   id="text3"><tspan
     sodipodi:role="line"
     id="tspan3"
     x="-691.5686"
     y="263.96317"
     style="stroke-width:1.32857;fill:#ff0000">A</tspan></text><text
   xml:space="preserve"
   style="font-style:normal;font-variant:normal;font-weight:normal;font-stretch:normal;font-size:44.1827px;font-family:'AndrijScript Cyrillic';-inkscape-font-specification:'AndrijScript Cyrillic';text-align:start;writing-mode:lr-tb;direction:ltr;text-anchor:start;fill:#0000ff;stroke-width:1.32857"
   x="-677.38715"
   y="279.08633"
   id="text4"><tspan
     sodipodi:role="line"
     id="tspan4"
     x="-677.38715"
     y="279.08633"
     style="stroke-width:1.32857">S</tspan></text>
 <path
   fill="#868789"
   stroke="none"
   d="m -672.64473,238.04076 c -1.45283,-0.36321 -17.23219,3.79352 -24.29457,0.9282 3.511,8.11166 10.12947,22.92244 6.01311,31.72016 -2.01782,4.23742 -3.79351,7.14308 -5.12527,9.08019 l -1.61429,2.25995 -0.20173,0.32287 c 1.49317,-1.00893 5.44811,-3.38995 13.07547,-5.56921 6.53775,-1.85638 8.51521,9.12057 16.304,17.11114 0.40355,-12.26835 -13.1562,-24.1735 -5.89204,-34.38368 l 1.5739,-2.25995 c 0.72641,-0.96857 1.61426,-1.93711 2.74423,-2.90568 -0.76677,-1.97746 -7.30452,-4.19706 -7.30452,-12.34907 l 1.61427,-2.21959 c 0,9.40304 8.7977,10.89622 7.10274,13.27727 l -1.57392,2.25996 -0.56498,0.565 c -1.08964,0.84747 -1.97747,1.65459 -2.70389,2.54243 -6.09381,10.85588 9.48377,23.56816 6.09383,36.60329 l -1.57391,2.21962 c -8.71698,-8.03094 -10.57337,-20.13787 -17.39361,-18.20076 -10.25053,2.94601 -13.88261,6.17452 -13.84228,6.09382 l 1.61428,-2.25995 c 0,0 0.64572,-0.60536 1.73533,-2.05818 1.21069,-1.85641 2.70387,-4.43921 4.31814,-7.86952 5.73061,-12.22798 -9.03982,-35.79616 -7.95025,-37.45077 l 1.57395,-2.21959 0.28245,-0.0808 c 1.73535,8.67663 25.78778,2.13889 27.60383,2.58282 z"
   id="path1"
   style="fill:#008000;stroke-width:0.0403564" /><path
   fill="#868789"
   stroke="none"
   d="m -485.48947,282.42231 c -1.95845,-0.36321 -23.22951,3.79352 -32.74981,0.9282 4.73293,8.11166 13.65484,22.92244 8.10585,31.72016 -2.72008,4.23742 -5.11376,7.14308 -6.90903,9.08019 l -2.17611,2.25995 -0.27193,0.32287 c 2.01284,-1.00893 7.34421,-3.38995 17.62613,-5.56921 8.81309,-1.85638 11.47877,9.12057 21.9783,17.11114 0.54399,-12.26835 -17.73496,-24.1735 -7.94266,-34.38368 l 2.12167,-2.25995 c 0.97923,-0.96857 2.17607,-1.93711 3.6993,-2.90568 -1.03362,-1.97746 -9.84671,-4.19706 -9.84671,-12.34907 l 2.17608,-2.21959 c 0,9.40304 11.85958,10.89622 9.57472,13.27727 l -2.1217,2.25996 -0.7616,0.565 c -1.46888,0.84747 -2.66569,1.65459 -3.64493,2.54243 -8.21464,10.85588 12.78441,23.56816 8.21467,36.60329 l -2.12169,2.21962 c -11.75076,-8.03094 -14.25321,-20.13787 -23.44711,-18.20076 -13.81803,2.94601 -18.71418,6.17452 -18.65982,6.09382 l 2.17611,-2.25995 c 0,0 0.87045,-0.60536 2.33927,-2.05818 1.63205,-1.85641 3.6449,-4.43921 5.82099,-7.86952 7.72504,-12.22798 -12.18595,-35.79616 -10.71718,-37.45077 l 2.12173,-2.21959 0.38074,-0.0808 c 2.33932,8.67663 34.76272,2.13889 37.21081,2.58282 z"
   id="path1-3"
   style="fill:#008000;stroke-width:0.0468557" />
 <path
   fill="#e30016"
   stroke="none"
   d="m -683.16197,267.39547 c -3.91146,6.23854 4.45609,2.27757 1.5844,0.29708 -0.44561,-0.29708 -1.13878,-0.24756 -1.5844,-0.29708 z m 0,0 z m -0.54462,-3.81243 c 0.14853,-0.0496 0.34658,-0.099 0.54462,-0.099 1.53489,0.0496 3.26781,0.19805 4.10951,2.32707 5.19879,13.0712 -14.11096,11.04121 -5.7434,-1.73292 0.34659,-0.3466 0.74269,-0.54464 1.08927,-0.49512 z"
   id="path2"
   style="stroke-width:0;stroke-dasharray:none;fill:#ff0000" />
<g
   id="g8"><text
     xml:space="preserve"
     style="font-style:normal;font-variant:normal;font-weight:normal;font-stretch:normal;font-size:44.1827px;font-family:'AndrijScript Cyrillic';-inkscape-font-specification:'AndrijScript Cyrillic';text-align:start;writing-mode:lr-tb;direction:ltr;text-anchor:start;fill:#ff0000;stroke-width:1.32857"
     x="-556.5686"
     y="258.9632"
     id="text3-3"><tspan
       sodipodi:role="line"
       id="tspan3-9"
       x="-556.5686"
       y="258.9632"
       style="fill:#ff0000;stroke-width:1.32857">A</tspan></text><text
     xml:space="preserve"
     style="font-style:normal;font-variant:normal;font-weight:normal;font-stretch:normal;font-size:44.1827px;font-family:'AndrijScript Cyrillic';-inkscape-font-specification:'AndrijScript Cyrillic';text-align:start;writing-mode:lr-tb;direction:ltr;text-anchor:start;fill:#0000ff;stroke-width:1.32857"
     x="-542.38715"
     y="274.08636"
     id="text4-1"><tspan
       sodipodi:role="line"
       id="tspan4-8"
       x="-542.38715"
       y="274.08636"
       style="stroke-width:1.32857">S</tspan></text></g><path
   fill="#e30016"
   stroke="none"
   d="m -464.43789,287.91319 c -3.91146,6.23854 4.45609,2.27757 1.5844,0.29708 -0.44561,-0.29708 -1.13878,-0.24756 -1.5844,-0.29708 z m 0,0 z m -0.54462,-3.81243 c 0.14853,-0.0496 0.34658,-0.099 0.54462,-0.099 1.53489,0.0496 3.26781,0.19805 4.10951,2.32707 5.19879,13.0712 -14.11096,11.04121 -5.7434,-1.73292 0.34659,-0.3466 0.74269,-0.54464 1.08927,-0.49512 z"
   id="path2-9"
   style="fill:#ff0000;stroke-width:0;stroke-dasharray:none" /><text
   xml:space="preserve"
   style="font-style:normal;font-variant:normal;font-weight:normal;font-stretch:normal;font-size:33.2558px;font-family:'Segoe Print';-inkscape-font-specification:'Segoe Print';text-align:start;writing-mode:lr-tb;direction:ltr;text-anchor:start;fill:#ff0000;stroke-width:0;stroke-dasharray:none"
   x="-511.00012"
   y="249.99797"
   id="text5"><tspan
     sodipodi:role="line"
     id="tspan5"
     x="-511.00012"
     y="249.99797">ctive</tspan><tspan
     sodipodi:role="line"
     x="-511.00012"
     y="291.56772"
     id="tspan6" /></text></g></svg>
